<mxfile host="app.diagrams.net" modified="2022-03-26T04:10:47.448Z" agent="5.0 (Macintosh; Intel Mac OS X 10_14_6) AppleWebKit/537.36 (KHTML, like Gecko) Chrome/99.0.4844.83 Safari/537.36" etag="i8QDlB1hF-H-wtgVa4Lf" version="17.1.3" type="github">
  <diagram id="UBJlWHT-NB6BU6D0WxXO" name="Page-1">
    <mxGraphModel dx="2066" dy="1163" grid="1" gridSize="10" guides="1" tooltips="1" connect="1" arrows="1" fold="1" page="1" pageScale="1" pageWidth="827" pageHeight="1169" math="0" shadow="0">
      <root>
        <mxCell id="0" />
        <mxCell id="1" parent="0" />
        <mxCell id="lkioJ91Oa3PrAOxWYqYH-5" style="edgeStyle=orthogonalEdgeStyle;rounded=0;orthogonalLoop=1;jettySize=auto;html=1;entryX=0.2;entryY=0.6;entryDx=0;entryDy=0;entryPerimeter=0;" edge="1" parent="1" source="lkioJ91Oa3PrAOxWYqYH-1" target="lkioJ91Oa3PrAOxWYqYH-3">
          <mxGeometry relative="1" as="geometry" />
        </mxCell>
        <mxCell id="lkioJ91Oa3PrAOxWYqYH-1" value="On-Premises" style="rounded=0;whiteSpace=wrap;html=1;" vertex="1" parent="1">
          <mxGeometry x="170" y="540" width="120" height="60" as="geometry" />
        </mxCell>
        <mxCell id="lkioJ91Oa3PrAOxWYqYH-2" value="" style="sketch=0;pointerEvents=1;shadow=0;dashed=0;html=1;strokeColor=none;fillColor=#505050;labelPosition=center;verticalLabelPosition=bottom;verticalAlign=top;outlineConnect=0;align=center;shape=mxgraph.office.concepts.on_premises;" vertex="1" parent="1">
          <mxGeometry x="170" y="510" width="30" height="50" as="geometry" />
        </mxCell>
        <mxCell id="lkioJ91Oa3PrAOxWYqYH-21" style="edgeStyle=orthogonalEdgeStyle;rounded=0;orthogonalLoop=1;jettySize=auto;html=1;entryX=0.105;entryY=0.464;entryDx=0;entryDy=0;entryPerimeter=0;" edge="1" parent="1">
          <mxGeometry relative="1" as="geometry">
            <mxPoint x="399.9999679999796" y="569.96" as="sourcePoint" />
            <mxPoint x="479.9499999999998" y="569.96" as="targetPoint" />
          </mxGeometry>
        </mxCell>
        <mxCell id="lkioJ91Oa3PrAOxWYqYH-3" value="" style="aspect=fixed;perimeter=ellipsePerimeter;html=1;align=center;shadow=0;dashed=0;spacingTop=3;image;image=img/lib/active_directory/internet_globe.svg;" vertex="1" parent="1">
          <mxGeometry x="350" y="540" width="50" height="50" as="geometry" />
        </mxCell>
        <mxCell id="lkioJ91Oa3PrAOxWYqYH-6" value="" style="rounded=0;whiteSpace=wrap;html=1;" vertex="1" parent="1">
          <mxGeometry x="460" y="500" width="190" height="140" as="geometry" />
        </mxCell>
        <mxCell id="lkioJ91Oa3PrAOxWYqYH-9" value="" style="outlineConnect=0;dashed=0;verticalLabelPosition=bottom;verticalAlign=top;align=center;html=1;shape=mxgraph.aws3.direct_connect;fillColor=#F58536;gradientColor=none;" vertex="1" parent="1">
          <mxGeometry x="356" y="600" width="38" height="40" as="geometry" />
        </mxCell>
        <mxCell id="lkioJ91Oa3PrAOxWYqYH-11" value="" style="outlineConnect=0;dashed=0;verticalLabelPosition=bottom;verticalAlign=top;align=center;html=1;shape=mxgraph.aws3.vpn_connection;fillColor=#F58534;gradientColor=none;" vertex="1" parent="1">
          <mxGeometry x="358" y="500" width="34" height="30" as="geometry" />
        </mxCell>
        <mxCell id="lkioJ91Oa3PrAOxWYqYH-14" value="" style="sketch=0;points=[[0,0,0],[0.25,0,0],[0.5,0,0],[0.75,0,0],[1,0,0],[0,1,0],[0.25,1,0],[0.5,1,0],[0.75,1,0],[1,1,0],[0,0.25,0],[0,0.5,0],[0,0.75,0],[1,0.25,0],[1,0.5,0],[1,0.75,0]];outlineConnect=0;fontColor=#232F3E;gradientColor=#4D72F3;gradientDirection=north;fillColor=#3334B9;strokeColor=#ffffff;dashed=0;verticalLabelPosition=bottom;verticalAlign=top;align=center;html=1;fontSize=12;fontStyle=0;aspect=fixed;shape=mxgraph.aws4.resourceIcon;resIcon=mxgraph.aws4.database;" vertex="1" parent="1">
          <mxGeometry x="570" y="510" width="38.5" height="38.5" as="geometry" />
        </mxCell>
        <mxCell id="lkioJ91Oa3PrAOxWYqYH-16" value="" style="sketch=0;points=[[0,0,0],[0.25,0,0],[0.5,0,0],[0.75,0,0],[1,0,0],[0,1,0],[0.25,1,0],[0.5,1,0],[0.75,1,0],[1,1,0],[0,0.25,0],[0,0.5,0],[0,0.75,0],[1,0.25,0],[1,0.5,0],[1,0.75,0]];outlineConnect=0;fontColor=#232F3E;gradientColor=#60A337;gradientDirection=north;fillColor=#277116;strokeColor=#ffffff;dashed=0;verticalLabelPosition=bottom;verticalAlign=top;align=center;html=1;fontSize=12;fontStyle=0;aspect=fixed;shape=mxgraph.aws4.resourceIcon;resIcon=mxgraph.aws4.storage;" vertex="1" parent="1">
          <mxGeometry x="536" y="580" width="38" height="38" as="geometry" />
        </mxCell>
        <mxCell id="lkioJ91Oa3PrAOxWYqYH-18" value="Amazon EC2" style="sketch=0;outlineConnect=0;fontColor=#232F3E;gradientColor=none;strokeColor=#ffffff;fillColor=#232F3E;dashed=0;verticalLabelPosition=middle;verticalAlign=bottom;align=center;html=1;whiteSpace=wrap;fontSize=10;fontStyle=1;spacing=3;shape=mxgraph.aws4.productIcon;prIcon=mxgraph.aws4.ec2;" vertex="1" parent="1">
          <mxGeometry x="480" y="505" width="50" height="80" as="geometry" />
        </mxCell>
        <mxCell id="lkioJ91Oa3PrAOxWYqYH-19" value="VPN" style="text;html=1;strokeColor=none;fillColor=none;align=center;verticalAlign=middle;whiteSpace=wrap;rounded=0;" vertex="1" parent="1">
          <mxGeometry x="310" y="514" width="60" height="30" as="geometry" />
        </mxCell>
        <mxCell id="lkioJ91Oa3PrAOxWYqYH-20" value="Direct Connect" style="text;html=1;strokeColor=none;fillColor=none;align=center;verticalAlign=middle;whiteSpace=wrap;rounded=0;" vertex="1" parent="1">
          <mxGeometry x="298" y="588" width="60" height="30" as="geometry" />
        </mxCell>
        <mxCell id="lkioJ91Oa3PrAOxWYqYH-22" value="Database" style="text;html=1;strokeColor=none;fillColor=none;align=center;verticalAlign=middle;whiteSpace=wrap;rounded=0;" vertex="1" parent="1">
          <mxGeometry x="578" y="550" width="60" height="30" as="geometry" />
        </mxCell>
        <mxCell id="lkioJ91Oa3PrAOxWYqYH-23" value="Storage" style="text;html=1;strokeColor=none;fillColor=none;align=center;verticalAlign=middle;whiteSpace=wrap;rounded=0;" vertex="1" parent="1">
          <mxGeometry x="525" y="610" width="60" height="30" as="geometry" />
        </mxCell>
      </root>
    </mxGraphModel>
  </diagram>
</mxfile>
